<svg xmlns="http://www.w3.org/2000/svg" viewBox="0 0 32 32"><rect width="16" height="18" x="8" y="10.5" fill="#50c6f1"/><path fill="#50c6f1" d="M9,.5H23a1,1,0,0,1,1,1v9a0,0,0,0,1,0,0H8a0,0,0,0,1,0,0v-9A1,1,0,0,1,9,.5Z"/><rect width="16" height="2" x="8" y="10.5" fill="#3c3b41"/><path fill="#3c3b41" d="M10 18a.5.5 0 0 1-.5-.5v-3a.5.5 0 0 1 1 0v3A.5.5 0 0 1 10 18zM10 9a.5.5 0 0 1-.5-.5v-3a.5.5 0 0 1 1 0v3A.5.5 0 0 1 10 9zM24.5 31.5h-.71a.52.52 0 0 1-.36-.16l-.65-.68a.5.5 0 0 0-.36-.16H9.58a.5.5 0 0 0-.36.16l-.65.68a.52.52 0 0 1-.36.16H7.5A.5.5 0 0 1 7 31V29a.5.5 0 0 1 .5-.5h17a.5.5 0 0 1 .5.5v2A.5.5 0 0 1 24.5 31.5z"/></svg>