<svg width="28" height="29" viewBox="0 0 28 29" fill="none" xmlns="http://www.w3.org/2000/svg">
<path d="M14.0805 28.3452C21.5304 28.3452 27.5696 22.0903 27.5696 14.3744C27.5696 6.65851 21.5304 0.403564 14.0805 0.403564C6.63073 0.403564 0.591454 6.65851 0.591454 14.3744C0.591454 22.0903 6.63073 28.3452 14.0805 28.3452Z" fill="#0AAFC3"/>
<path d="M14.0805 28.3452C21.5304 28.3452 27.5696 22.0903 27.5696 14.3744C27.5696 6.65851 21.5304 0.403564 14.0805 0.403564C6.63073 0.403564 0.591454 6.65851 0.591454 14.3744C0.591454 22.0903 6.63073 28.3452 14.0805 28.3452Z" fill="url(#paint0_linear)"/>
<path opacity="0.062" d="M24.9812 13.0156L18.6933 9.38104L11.1648 23.3525L17.4527 26.987L24.9812 13.0156Z" fill="url(#paint1_linear)"/>
<path opacity="0.062" d="M24.9812 13.0156L18.6933 9.38104L11.1648 23.3525L17.4527 26.987L24.9812 13.0156Z" fill="url(#paint2_linear)"/>
<path opacity="0.062" fill-rule="evenodd" clip-rule="evenodd" d="M21.8962 8.52151L26.5502 14.2126L11.1648 23.3525C13.4095 18.8157 17.8061 11.8674 18.705 9.42155C18.8257 9.09302 18.3682 8.80788 18.1222 8.5376L21.8962 8.52151Z" fill="url(#paint3_linear)"/>
<path opacity="0.23" fill-rule="evenodd" clip-rule="evenodd" d="M15.746 5.43304L23.6134 13.3524L14.5053 23.039L11.5505 21.6814L15.746 5.43304Z" fill="url(#paint4_linear)"/>
<path d="M15.746 5.43304L18.1222 8.53758L21.8963 8.52149L15.746 5.43304Z" fill="#FFFDFF" stroke="black" stroke-opacity="0.12549" stroke-width="0.0925632"/>
<path d="M15.746 5.43304L15.0427 7.94609C16.2341 8.40499 17.982 9.30311 18.6168 9.32278C17.8546 7.99739 16.7315 6.7254 15.746 5.43304" fill="#FFFDFF"/>
<path d="M15.746 5.43304L15.0427 7.94609C16.2341 8.40499 17.982 9.30311 18.6168 9.32278C17.8546 7.99739 16.7315 6.7254 15.746 5.43304" stroke="black" stroke-opacity="0.12549" stroke-width="0.0925632"/>
<path d="M18.6934 9.38103L11.1488 6.20517L15.3888 15.5992L18.6934 9.38103" fill="#FFFDFF"/>
<path d="M18.6934 9.38103L11.1488 6.20517L15.3888 15.5992L18.6934 9.38103" stroke="black" stroke-opacity="0.12549" stroke-width="0.0925632"/>
<path d="M15.3888 15.5992L12.1583 8.40889L7.11076 7.65286L14.7054 16.886L15.3888 15.5992Z" fill="#FFFDFF" stroke="black" stroke-opacity="0.12549" stroke-width="0.0925632"/>
<path d="M13.1834 15.0362L6.41186 10.7413L9.58018 10.6448L13.1834 15.0362Z" fill="#FFFDFF" stroke="black" stroke-opacity="0.12549" stroke-width="0.0925632"/>
<path d="M13.1834 15.0362L11.1178 23.3364L14.7054 16.886L13.1834 15.0362Z" fill="#FFFDFF" stroke="black" stroke-opacity="0.12549" stroke-width="0.0925632"/>
<path opacity="0.23" fill-rule="evenodd" clip-rule="evenodd" d="M6.4473 10.778C7.65255 10.8063 9.44588 10.5875 9.59893 10.7747C10.0646 11.345 12.0802 13.6917 13.1775 15.0342C14.0599 16.1139 13.7239 17.2913 14.2793 18.6604L21.5185 25.4387L17.0024 26.1081C16.4278 25.0822 8.31095 13.7456 6.4473 10.7778V10.778Z" fill="url(#paint5_linear)"/>
<path opacity="0.23" fill-rule="evenodd" clip-rule="evenodd" d="M7.11074 7.65289C8.31599 7.68111 12.065 8.37123 12.218 8.55865C12.6837 9.12892 12.7437 10.5668 13.8409 11.9093C14.7233 12.9889 17.6217 22.4502 18.1771 23.8193L22.182 22.3137L17.6658 22.9831C17.0912 21.9572 8.97438 10.6207 7.11074 7.65289V7.65289Z" fill="url(#paint6_linear)"/>
<defs>
<linearGradient id="paint0_linear" x1="26.8174" y1="17.3867" x2="1.73977" y2="8.40448" gradientUnits="userSpaceOnUse">
<stop stop-opacity="0.398"/>
<stop offset="1" stop-opacity="0"/>
</linearGradient>
<linearGradient id="paint1_linear" x1="14.9291" y1="16.3668" x2="21.3198" y2="19.8104" gradientUnits="userSpaceOnUse">
<stop/>
<stop offset="1" stop-opacity="0"/>
</linearGradient>
<linearGradient id="paint2_linear" x1="14.9291" y1="16.3668" x2="21.3198" y2="19.8104" gradientUnits="userSpaceOnUse">
<stop/>
<stop offset="1" stop-opacity="0"/>
</linearGradient>
<linearGradient id="paint3_linear" x1="16.0021" y1="13.6919" x2="20.8472" y2="19.2153" gradientUnits="userSpaceOnUse">
<stop/>
<stop offset="1" stop-opacity="0"/>
</linearGradient>
<linearGradient id="paint4_linear" x1="11.9817" y1="12.4188" x2="18.3724" y2="15.8624" gradientUnits="userSpaceOnUse">
<stop/>
<stop offset="1" stop-opacity="0"/>
</linearGradient>
<linearGradient id="paint5_linear" x1="2.64758" y1="17.727" x2="11.2708" y2="21.5976" gradientUnits="userSpaceOnUse">
<stop/>
<stop offset="1" stop-opacity="0"/>
</linearGradient>
<linearGradient id="paint6_linear" x1="3.31101" y1="14.6019" x2="11.5592" y2="17.8521" gradientUnits="userSpaceOnUse">
<stop/>
<stop offset="1" stop-opacity="0"/>
</linearGradient>
</defs>
</svg>
